<?xml version="1.0" encoding="utf-8"?>
<!-- Generated by IcoMoon.io -->
<!DOCTYPE svg PUBLIC "-//W3C//DTD SVG 1.1//EN" "http://www.w3.org/Graphics/SVG/1.1/DTD/svg11.dtd">
<svg version="1.1" xmlns="http://www.w3.org/2000/svg" xmlns:xlink="http://www.w3.org/1999/xlink" width="32" height="32" viewBox="0 0 32 32">
<path fill="#ecf0f1" d="M28.982 13.975c-0.824 0.784-1.076 1.274-0.757 1.478 0.319 0.198 0.331 0.748 0.036 1.664-0.295 0.91-0.674 1.239-1.142 0.988-0.476-0.252-0.855 0.179-1.149 1.293-0.175 0.526-0.631 0.658-1.371 0.401s-1.353-0.455-1.834-0.599c0 0.072-0.065 0.168-0.204 0.293-0.132 0.12-0.199 0.198-0.199 0.234 0.458 0.982 0.373 1.61-0.24 1.885-0.619 0.276-1.239 0.299-1.858 0.066-0.198-0.060-0.109 0 0.283 0.174 0.385 0.173 0.733 0.293 1.040 0.347 0.222 0.036 0.21 0.251-0.031 0.64-0.24 0.395-0.251 0.635-0.041 0.731 0.985 0.43 1.707 0.802 2.158 1.113s1.305 0.526 2.561 0.658c1.341 0.198 2.424 1.047 3.26 2.55 0.835 1.502 1.497 2.873 1.99 4.112h-8.261c-0.174-0.946-0.396-2.28-0.661-4.005-0.265-1.723-0.662-2.849-1.191-3.375 0.037 0.359 0.271 1.431 0.698 3.196 0.426 1.772 0.662 3.166 0.697 4.184h-22.245c-0.108-1.855 0.102-3.029 0.626-3.507 0.523-0.479 1.929-1.425 4.233-2.837 1.906-1.174 3.246-2.066 4.027-2.676 0.783-0.617 1.383-0.874 1.805-0.784 0.703 0.191 1.545 0.832 2.524 1.933 0.987 1.095 1.925 2.244 2.832 3.436 0.902 1.191 1.672 2.227 2.315 3.094 0.638 0.874 0.974 1.168 0.993 0.886 0.012-0.095-0.055-0.455-0.211-1.089-0.15-0.629-0.319-1.311-0.499-2.041-0.186-0.73-0.349-1.395-0.505-2-0.151-0.604-0.229-0.922-0.229-0.957-0.035-0.246-0.222-0.533-0.565-0.856-0.336-0.329-0.517-0.671-0.541-1.035 0-0.222 0.121-0.485 0.361-0.779 0.24-0.299 0.313-0.521 0.217-0.658-0.296-0.222-1.311-0.485-3.055-0.784-1.743-0.293-2.651-0.581-2.724-0.85-0.198-0.641-0.324-1.108-0.385-1.401s-0.3-0.849-0.721-1.664c-0.331-0.61-0.643-1.161-0.944-1.652-0.301-0.49-0.469-1.113-0.499-1.873 0-0.425 0.012-0.85 0.030-1.281 0.024-0.431 0.192-0.879 0.494-1.335-0.524-0.257-1.342-0.329-2.436-0.209-1.1 0.12-1.924-0.054-2.476-0.509-0.494-0.419-0.524-0.796-0.091-1.119 0.438-0.329 1.034-0.605 1.792-0.82 0.757-0.216 1.521-0.377 2.296-0.479 0.776-0.108 1.257-0.15 1.443-0.126 0.157-0.58 0.133-1.412-0.065-2.478-0.206-1.071-0.073-1.85 0.384-2.34 0.379-0.425 1.046-0.737 2.008-0.952 0.962-0.209 1.984-0.329 3.054-0.365 1.077-0.035 2.087 0 3.031 0.114 0.944 0.108 1.593 0.269 1.947 0.479 0.716 0.46 1.233 1.544 1.54 3.256 0.312 1.711 0.324 2.495 0.030 2.358-0.848-0.383-2.453-0.73-4.822-1.023-2.363-0.3-4.101-0.312-5.201-0.031v1.126c1.196-0.072 3 0.036 5.417 0.311 2.412 0.282 4.666 0.652 6.77 1.107 0.915 0.21 1.498 0.366 1.744 0.456 0.246 0.095 0.523 0.203 0.829 0.335-0.751-1.533 0.079-3.011 2.484-4.436 0.271 0.814 0.33 1.419 0.187 1.814-0.151 0.389-0.337 0.688-0.566 0.886s-0.409 0.371-0.547 0.515c-0.133 0.149-0.043 0.377 0.277 0.694 1.262 1.119 1.22 2.496-0.145 4.118zM23.614 12.419c-0.355 0.035-0.685 0.353-0.992 0.964 0.193 0.334 0.415 0.801 0.679 1.382 0.265 0.587 0.368 1.017 0.313 1.299 0 0.197-0.144 0.323-0.432 0.377s-0.451 0.144-0.488 0.269c-0.102 0.239-0.114 0.449-0.024 0.634 0.084 0.186 0.186 0.282 0.288 0.282 0.025 0 0.043 0.107 0.055 0.329 0.012 0.228 0.036 0.335 0.072 0.335 0.199 0 0.613 0.090 1.251 0.263 0.631 0.174 0.914 0.193 0.841 0.055-0.246-0.467-0.235-0.761 0.030-0.88 0.265-0.114 0.571-0.216 0.92-0.306 0.355-0.089 0.638-0.245 0.848-0.479 0.21-0.239 0.145-0.706-0.21-1.406-0.667-1.401-0.41-2.58 0.775-3.526-0.787 0.18-2.098 0.312-3.926 0.408zM28.501 6.009c-0.619 0.228-1.022 0.623-1.209 1.185-0.432-0.389-0.559-0.73-0.378-1.029 0.18-0.299 0.307-0.677 0.378-1.131 0.091-0.384-0.035-0.713-0.378-0.988-0.349-0.276-0.548-0.575-0.607-0.904-0.181-0.784-0.012-1.352 0.493-1.712 0.504-0.353 0.973-0.832 1.407-1.43 0.084 0.706-0.114 1.292-0.595 1.772-0.428 0.562-0.355 1.107 0.216 1.634s0.956 0.981 1.154 1.364c0.294 0.599 0.133 1.012-0.481 1.239z"></path>
</svg>
